<?xml version="1.0" encoding="utf-8"?>
<!-- Generator: Adobe Illustrator 18.0.0, SVG Export Plug-In . SVG Version: 6.00 Build 0)  -->
<!DOCTYPE svg PUBLIC "-//W3C//DTD SVG 1.1 Basic//EN" "http://www.w3.org/Graphics/SVG/1.1/DTD/svg11-basic.dtd">
<svg version="1.1" baseProfile="basic" id="Layer_1"
	 xmlns="http://www.w3.org/2000/svg" xmlns:xlink="http://www.w3.org/1999/xlink" x="0px" y="0px" viewBox="0 0 216 66.8"
	 xml:space="preserve">
<rect x="88" y="10.2" fill="#072630" width="10.7" height="39.9"/>
<path fill="#072630" d="M141.1,53.7c0,3.6-1.4,6.6-4.1,8.8c-3.4,2.8-8.7,4.2-15.9,4.2c-7.8,0-13.2-1.2-16.3-3.6
	c-2.8-2.2-4.2-5.6-4.2-10.4h11.3c0.3,2,0.8,3.2,1.8,3.9c1.3,1,3.8,1.5,7.6,1.5c5.7,0,8.6-1.2,8.6-3.7c0-1.2-1-2.1-2.9-2.4
	c-2.5-0.4-5-0.8-7.5-1.2c-6.7-1.1-10.9-2-12.5-2.5c-3.9-1.5-5.9-3.9-5.9-7.1c0-3.6,2.9-6,8.7-6.9c-2.6-0.8-4.6-2.3-6-4.5
	c-1.2-1.8-1.9-3.7-1.9-5.8c0-9.2,6.8-13.8,20.4-13.8h17.8v4.5c0,0-6.3,2.5-6.3,2.4c1.2,0.6,2.3,1.6,3.2,3.1c1,1.6,1.5,3.3,1.5,5.1
	c0,8.9-6.2,13.3-18.5,13.3c-5.4,0-8.1,0.6-8.1,1.8c0,0.6,0.6,1,1.7,1.3c1.1,0.3,4.5,0.8,10.1,1.5c5.6,0.7,9.4,1.6,11.6,2.5
	C139.2,47.3,141.1,50,141.1,53.7 M127.3,24.4c0-3.8-2.4-5.7-7.2-5.7c-4.8,0-7.1,1.9-7.1,5.7c0,4.1,2.4,6.2,7.2,6.2
	C124.9,30.6,127.3,28.5,127.3,24.4"/>
<path fill="#072630" d="M164,19.3h-2.3c-5.7,0-8.5,3.2-8.5,9.7V50h-10.7V10.2h4.5l2.4,6.3c0.9-1.7,2.5-3.2,4.9-4.5
	c3-1.8,6.3-2.5,9.8-2.1V19.3z"/>
<path fill="#072630" d="M199,14.5c-2.8-3.3-8-5-15.7-5c-9.6,0-15.4,3.3-17.2,9.8c-0.4,1.5-0.6,3.1-0.6,4.9h10.6
	c0-4.3,2.5-6.4,7.3-6.4c5.3,0,8,2.5,8.1,7.4l-10.6,1.2c-6.1,0.7-10.4,1.8-12.9,3.5c-2.5,1.7-3.8,4.4-3.8,8.2c0,4.1,1.5,7.3,4.6,9.5
	c2.9,2,6.6,3,11.3,3c7.1,0,12.1-2.3,15.1-6.9l2.4,6.4h4.5V27.4C202.2,21.3,201.1,17,199,14.5 M182.7,42.3c-4.9,0-7.3-1.6-7.3-4.7
	c0-2.2,2.4-3.6,7.2-4.1l9-1C191.4,39.1,188.4,42.3,182.7,42.3"/>
<path fill="#072630" d="M78.9,28.4c-2.2-1-6.3-2-12.5-3.1c-4.6-0.8-6.9-1.8-7-3c-0.2-3,2.2-4.5,7-4.5c4.9,0,7.5,2.1,8.1,6.4h10
	c-0.1-9.6-6-14.4-17.8-14.4c-6.1,0-10.7,1.3-13.9,3.8c-2.9,2.3-4.2,5.4-4.1,9.3c0.1,4.1,2.4,7,7.1,8.9c1.3,0.5,5.6,1.5,12.8,2.9
	c4.4,0.8,6.6,2.2,6.5,4c-0.3,2.5-2.8,3.8-7.6,3.8c-5.9,0-8.9-2.4-8.9-7.1H48.1c-0.1,10.3,6.4,15.4,19.6,15.4c6,0,10.6-1.4,13.8-4.1
	c2.8-2.3,4.2-5.2,4.2-8.7C85.7,33.6,83.4,30.5,78.9,28.4"/>
<path fill="#072630" d="M38.8,50h11.7L32.4-0.1h-15L0,50h11.7l3.4-10.7h20.1L38.8,50z M17.9,30.9l7.2-22.5l7.4,22.5H17.9z"/>
<rect x="205" y="39.1" fill="#08B5C8" width="11" height="11"/>
</svg>
