<?xml version="1.0" encoding="utf-8"?>
<!-- Generator: Adobe Illustrator 18.0.0, SVG Export Plug-In . SVG Version: 6.00 Build 0)  -->
<!DOCTYPE svg PUBLIC "-//W3C//DTD SVG 1.1 Basic//EN" "http://www.w3.org/Graphics/SVG/1.1/DTD/svg11-basic.dtd">
<svg version="1.1" baseProfile="basic" id="Layer_1"
	 xmlns="http://www.w3.org/2000/svg" xmlns:xlink="http://www.w3.org/1999/xlink" x="0px" y="0px" viewBox="0 0 200 150"
	 xml:space="preserve">
<path d="M160.1,148.3H46.8c-25.7,0-46.7-20.9-46.7-46.7c0-18.6,11-34.8,26.9-42.2c-0.1-1.5-0.2-3-0.2-4.5
	c0-29.5,23.9-53.3,53.3-53.3c22.3,0,41.4,13.6,49.4,33.1c4.6-4.1,10.6-6.5,17.3-6.5c14.7,0,26.7,12,26.7,26.7
	c0,5.3-1.6,10.2-4.3,14.4c17.7,4.2,30.9,20,30.9,39C200.1,130.4,182.2,148.3,160.1,148.3z"/>
</svg>
